<svg width="512" height="512" viewBox="0 0 512 512" fill="none" xmlns="http://www.w3.org/2000/svg" role="img" aria-label="GearBeat app icon">
  <defs>
    <linearGradient id="bg" x1="70" y1="42" x2="470" y2="480" gradientUnits="userSpaceOnUse">
      <stop offset="0" stop-color="#172131"/>
      <stop offset="1" stop-color="#050A10"/>
    </linearGradient>
    <linearGradient id="gold" x1="120" y1="70" x2="390" y2="440" gradientUnits="userSpaceOnUse">
      <stop offset="0" stop-color="#F6D87A"/>
      <stop offset="0.48" stop-color="#D4AF37"/>
      <stop offset="1" stop-color="#8B641C"/>
    </linearGradient>
    <filter id="shadow" x="-20%" y="-20%" width="140%" height="140%">
      <feDropShadow dx="0" dy="12" stdDeviation="14" flood-color="#000000" flood-opacity="0.36"/>
    </filter>
  </defs>
  <rect x="36" y="36" width="440" height="440" rx="98" fill="url(#bg)" stroke="url(#gold)" stroke-width="6"/>
  <g filter="url(#shadow)">
    <path d="M329 92L168 92L92 144V304L256 420L420 324V256H352" stroke="url(#gold)" stroke-width="38" stroke-linecap="round" stroke-linejoin="round"/>
    <path d="M352 256H420" stroke="url(#gold)" stroke-width="38" stroke-linecap="round"/>
    <rect x="150" y="236" width="15" height="42" rx="7.5" fill="url(#gold)"/>
    <rect x="190" y="208" width="17" height="96" rx="8.5" fill="url(#gold)"/>
    <rect x="232" y="174" width="18" height="164" rx="9" fill="url(#gold)"/>
    <rect x="274" y="136" width="18" height="240" rx="9" fill="url(#gold)"/>
    <rect x="316" y="174" width="18" height="164" rx="9" fill="url(#gold)"/>
    <rect x="361" y="208" width="17" height="96" rx="8.5" fill="url(#gold)"/>
  </g>
</svg>
